<svg width="32" height="32" viewBox="0 0 32 32" fill="none" xmlns="http://www.w3.org/2000/svg">
<path d="M8.42023 2.94287L4.57324 8.17276V26.4774C4.57324 27.1709 4.84345 27.836 5.32441 28.3264C5.80538 28.8168 6.45771 29.0923 7.1379 29.0923H25.0905C25.7707 29.0923 26.423 28.8168 26.904 28.3264C27.3849 27.836 27.6551 27.1709 27.6551 26.4774V8.17276L23.8082 2.94287H8.42023Z" fill="#000" stroke="#000" stroke-width="1.68036" stroke-linecap="round" stroke-linejoin="round"/>
<path d="M4.57324 8.17285H27.6551" stroke="#fff" stroke-width="1.68036" stroke-linecap="round" stroke-linejoin="round"/>
<path d="M21.2435 13.4026C21.2435 14.7896 20.7031 16.1199 19.7411 17.1007C18.7792 18.0815 17.4746 18.6325 16.1142 18.6325C14.7538 18.6325 13.4491 18.0815 12.4872 17.1007C11.5253 16.1199 10.9849 14.7896 10.9849 13.4026" stroke="#fff" stroke-width="1.68036" stroke-linecap="round" stroke-linejoin="round"/>
</svg>
