<svg width="1440" height="270" viewBox="0 0 1440 270" fill="none" xmlns="http://www.w3.org/2000/svg">
<path d="M0 10.1135H48C96 10.1135 192 10.1135 288 18.7095C384 27.9542 480 44.1729 576 36.0635C672 27.9542 768 -7.7271 864 1.51758C960 10.1135 1056 62.0135 1152 96.5595C1248 131.754 1344 147.973 1392 157.218L1440 165.814V269.614H1392C1344 269.614 1248 269.614 1152 269.614C1056 269.614 960 269.614 864 269.614C768 269.614 672 269.614 576 269.614C480 269.614 384 269.614 288 269.614C192 269.614 96 269.614 48 269.614H0V10.1135Z" fill="#3C35FF"/>
</svg>
