<svg width="292" height="292" viewBox="0 0 292 292" fill="none" xmlns="http://www.w3.org/2000/svg">
<path d="M50.1875 111.781H43.3438V57.9894C43.4122 43.8229 45.625 18.3869 69.7834 12.8207C78.2697 10.8588 85.2047 12.0451 90.9078 16.3338C101.744 24.4551 102.519 39.7166 102.565 40.401V86.6648H95.8125V41.6785C95.8125 41.6785 94.6262 28.1735 86.505 22.1282C82.5812 19.1854 77.2659 18.4326 70.9697 19.8926C61.0006 22.1966 54.9781 28.721 51.8984 39.9219C49.4575 48.7732 50.5069 58.1719 50.1875 57.8298V111.781Z" fill="#ED6C30"/>
<path d="M20.0063 88.2388L119.629 61.5254L135.095 66.6354L153.186 65.2438L64.2854 90.657L20.0063 88.2388Z" fill="#ED6C30"/>
<path d="M71.5173 275.735L48.3626 267.455C46.9939 266.975 45.5111 266.907 44.1195 267.272L26.7136 271.835C23.4057 272.701 20.1436 270.192 20.1436 266.77V87.8517L54.2939 86.3233C55.1379 86.2776 55.982 86.4601 56.7576 86.848L64.2857 90.6577L71.5173 275.735Z" fill="#FFC158"/>
<path d="M64.2856 90.6561V268.48C64.2856 273.498 69.236 276.989 73.9581 275.323L148.35 248.952C149.765 248.452 150.99 247.525 151.856 246.299C152.722 245.073 153.187 243.609 153.186 242.108V65.1289L64.2856 90.6561Z" fill="#F75F2C"/>
<path d="M79.8438 118.625H73.0001V69.0083C73.0001 67.5939 72.7263 56.1876 75.6235 43.9601C79.8438 26.2348 89.5391 15.4445 103.295 12.7754C113.036 10.882 120.998 12.4561 126.769 17.4976C137.149 26.5314 136.419 43.1389 136.373 43.8461L136.442 104.938H130.031V43.7092C130.031 43.3898 130.214 29.5882 122.503 22.9042C118.488 19.4367 112.489 18.4101 105.074 19.8473C78.5891 25.0029 79.821 68.4379 79.8438 68.8942V118.625Z" fill="#F79329"/>
<path d="M129.849 130.988L96.588 141.619C95.8306 141.838 95.0326 141.878 94.257 141.736C93.4815 141.594 92.7495 141.274 92.119 140.801C91.4885 140.327 90.9767 139.714 90.6239 139.008C90.2712 138.303 90.0872 137.526 90.0864 136.737V128.137C90.0864 125.878 91.592 123.871 93.7592 123.255L127.02 112.624C127.777 112.405 128.575 112.365 129.351 112.507C130.126 112.649 130.858 112.97 131.489 113.443C132.119 113.916 132.631 114.53 132.984 115.235C133.337 115.94 133.521 116.718 133.521 117.506V126.107C133.521 128.365 132.016 130.35 129.849 130.988Z" fill="#FBC21A"/>
<path d="M264.83 275.141H138.86C132.997 275.141 127.59 271.446 127.59 265.583V105.143H276.031V265.583C276.031 271.446 270.693 275.141 264.83 275.141Z" fill="#1F2F6D"/>
<path d="M275.917 235.311V265.537C275.917 271.423 270.579 275.118 264.693 275.118H138.745C132.883 275.118 127.476 271.423 127.476 265.537V235.311H275.917Z" fill="#3A60E5"/>
<path d="M127.59 80.8242H275.986V105.142H127.59V80.8242Z" fill="#1F2F6D"/>
<path d="M138.107 86.9158L143.97 90.3148C146.046 91.5239 146.046 94.5123 143.97 95.7214L138.13 99.0977L127.591 105.166L127.568 93.0067L127.545 80.8477L138.107 86.9158ZM265.446 86.9158L259.606 90.292C259.128 90.5684 258.731 90.9658 258.455 91.4443C258.178 91.9228 258.033 92.4656 258.033 93.0181C258.033 93.5707 258.178 94.1134 258.455 94.592C258.731 95.0705 259.128 95.4679 259.606 95.7442L265.424 99.0977L275.963 105.166L275.986 93.0067L276.009 80.8477L265.446 86.9158Z" fill="#3A60E5"/>
<path d="M245.691 81.7606H238.094V60.5678C238.094 40.4928 221.692 24.1362 201.526 24.1362C181.36 24.1362 164.957 40.47 164.957 60.5678V81.7606H157.361V60.5678C157.361 36.2953 177.162 16.5625 201.526 16.5625C225.89 16.5625 245.691 36.2953 245.691 60.5678V81.7606Z" fill="#1F2F6D"/>
<path d="M64.2627 243.478V235.95L127.499 214.598V222.057L64.2627 243.478Z" fill="#FBC21A"/>
<path d="M138.586 105.119H149.878V235.31H138.586V105.119ZM184.485 105.119H195.777V235.31H184.485V105.119ZM207.434 105.119H218.726V235.31H207.434V105.119ZM230.383 105.119H241.676V235.31H230.383V105.119ZM161.535 105.119H172.828V235.31H161.535V105.119ZM253.333 105.119H264.625V235.31H253.333V105.119Z" fill="#3A60E5"/>
<path d="M243.615 124.009H236.383V82.0342C236.383 62.8945 220.734 47.3136 201.526 47.3136C182.317 47.3136 166.668 62.8945 166.668 82.0342V124.032H159.437V82.0342C159.437 58.9023 178.325 40.082 201.526 40.082C224.726 40.082 243.615 58.9023 243.615 82.0342V124.009Z" fill="#1F2F6D"/>
<path d="M162.63 133.476C166.296 133.476 169.269 130.504 169.269 126.838C169.269 123.171 166.296 120.199 162.63 120.199C158.964 120.199 155.992 123.171 155.992 126.838C155.992 130.504 158.964 133.476 162.63 133.476Z" fill="#1F2F6D"/>
<path d="M239.805 133.682C243.585 133.682 246.649 130.618 246.649 126.838C246.649 123.058 243.585 119.994 239.805 119.994C236.025 119.994 232.961 123.058 232.961 126.838C232.961 130.618 236.025 133.682 239.805 133.682Z" fill="#1F2F6D"/>
</svg>
